999
FreeCAD v1.0 
  0
SECTION
  2
HEADER
  9
$ACADVER
  1
AC1014
  9
$ACADMAINTVER
 70
     9
  9
$DWGCODEPAGE
  3
ANSI_1252
  9
$TEXTSTYLE
  7
STANDARD
  9
$DIMSTYLE
  2
STANDARD
  9
$DIMTXSTY
  7
STANDARD
  9
$CMLSTYLE
  2
STANDARD
  9
$LUNITS
 70
2
  9
$INSUNITS
 70
4
  9
$PEXTMAX
 10
50
 20
50
 30
50
  9
$PEXTMIN
 10
0
 20
0
 30
0
  9
$HANDSEED
  5
FFFF
  0
ENDSEC
  0
SECTION
  2
CLASSES
  0
CLASS
  1
ACDBDICTIONARYWDFLT
  2
AcDbDictionaryWithDefault
  3
ObjectDBX Classes
 90
        0
280
     0
281
     0
  0
CLASS
  1
XRECORD
  2
AcDbXrecord
  3
ObjectDBX Classes
 90
        0
280
     0
281
     0
  0
CLASS
  1
LWPOLYLINE
  2
AcDbPolyline
  3
ObjectDBX Classes
 90
        0
280
     0
281
     1
  0
ENDSEC
  0
SECTION
  2
TABLES
  0
TABLE
  2
VPORT
  5
20
330
0
100
AcDbSymbolTable
 70
     1
  0
VPORT
  5
21
330
20
100
AcDbSymbolTableRecord
100
AcDbViewportTableRecord
  2
*ACTIVE
 70
     0
  0
ENDTAB
  0
TABLE
  2
LTYPE
  5
22
330
0
100
AcDbSymbolTable
 70
     1
  0
LTYPE
  5
23
330
21
100
AcDbSymbolTableRecord
100
AcDbLinetypeTableRecord
  2
BYBLOCK
 70
     0
  3

 72
    65
 73
     0
 40
0.0
  0
LTYPE
  5
24
330
21
100
AcDbSymbolTableRecord
100
AcDbLinetypeTableRecord
  2
BYLAYER
 70
     0
  3

 72
    65
 73
     0
 40
0.0
  0
LTYPE
  5
25
330
21
100
AcDbSymbolTableRecord
100
AcDbLinetypeTableRecord
  2
CONTINUOUS
 70
     0
  3
Solid line
 72
    65
 73
     0
 40
0.0
  0
ENDTAB
  0
TABLE
  2
LAYER
  5
B10
330
0
100
AcDbSymbolTable
 70
3
  0
LAYER
  5
B11
330
B10
100
AcDbSymbolTableRecord
100
AcDbLayerTableRecord
  2
0
 70
   0
 62
   7
  6
CONTINUOUS
  0
LAYER
  5
B12
330
B10
100
AcDbSymbolTableRecord
100
AcDbLayerTableRecord
  2
none
 70
    0
 62
    7
  6
CONTINUOUS
  0
LAYER
  5
B13
330
B10
100
AcDbSymbolTableRecord
100
AcDbLayerTableRecord
  2
Pad028
 70
    0
 62
    7
  6
CONTINUOUS
  0
ENDTAB
  0
TABLE
  2
STYLE
  5
70
330
0
100
AcDbSymbolTable
 70
     2
  0
STYLE
  5
71
330
70
100
AcDbSymbolTableRecord
100
AcDbTextStyleTableRecord
  2
STANDARD
 70
     0
 40
0.0
 41
1.0
 50
0.0
 71
     0
 42
2.5
  3
arial.ttf
  4

  0
STYLE
  5
72
330
70
100
AcDbSymbolTableRecord
100
AcDbTextStyleTableRecord
  2
ANNOTATIVE
 70
     0
 40
0.0
 41
1.0
 50
0.0
 71
     0
 42
2.5
  3
arial.ttf
  4

  0
ENDTAB
  0
TABLE
  2
VIEW
  5
73
330
0
100
AcDbSymbolTable
 70
     0
  0
ENDTAB
  0
TABLE
  2
UCS
  5
74
330
0
100
AcDbSymbolTable
 70
     0
  0
ENDTAB
  0
TABLE
  2
APPID
  5
75
330
0
100
AcDbSymbolTable
 70
     2
  0
APPID
  5
76
330
75
100
AcDbSymbolTableRecord
100
AcDbRegAppTableRecord
  2
ACAD
 70
     0
  0
APPID
  5
77
330
75
100
AcDbSymbolTableRecord
100
AcDbRegAppTableRecord
  2
ACADANNOTATIVE
 70
     0
  0
ENDTAB
  0
TABLE
  2
DIMSTYLE
  5
78
330
0
100
AcDbSymbolTable
 70
     2
  0
DIMSTYLE
105
79
330
78
100
AcDbSymbolTableRecord
100
AcDbDimStyleTableRecord
  2
STANDARD
 70
     0
  3

  4

  5

  6

  7

 40
0.0
 41
2.5
 42
0.625
 43
3.75
 44
1.25
 45
0.0
 46
0.0
 47
0.0
 48
0.0
140
2.5
141
2.5
142
0.0
143
0.03937007874016
144
1.0
145
0.0
146
1.0
147
0.625
 71
     0
 72
     0
 73
     0
 74
     0
 75
     0
 76
     0
 77
     1
 78
     8
170
     0
171
     3
172
     1
173
     0
174
     0
175
     0
176
     0
177
     0
178
     0
270
     2
271
     2
272
     2
273
     2
274
     3
340
71
275
     0
280
     0
281
     0
282
     0
283
     0
284
     8
285
     0
286
     0
287
     3
288
     0
  0
ENDTAB
  0
TABLE
  2
BLOCK_RECORD
  5
A01
330
0
100
AcDbSymbolTable
  70
5
  0
BLOCK_RECORD
  5
A02
330
A01
100
AcDbSymbolTableRecord
100
AcDbBlockTableRecord
  2
*MODEL_SPACE
  0
BLOCK_RECORD
  5
A03
330
A01
100
AcDbSymbolTableRecord
100
AcDbBlockTableRecord
  2
*PAPER_SPACE
  0
ENDTAB
  0
ENDSEC
  0
SECTION
  2
BLOCKS
  0
BLOCK
  5
A04
330
A02
100
AcDbEntity
  8
0
100
AcDbBlockBegin
  2
*MODEL_SPACE
 70
   0
 10
0
 20
0
 30
0
  3
*MODEL_SPACE
  1
 
  0
ENDBLK
  5
A05
330
A02
100
AcDbEntity
  8
0
100
AcDbBlockEnd
  0
BLOCK
  5
A06
330
A03
100
AcDbEntity
 67
1
  8
0
100
AcDbBlockBegin
  2
*PAPER_SPACE
 70
   0
 10
0
 20
0
 30
0
  3
*PAPER_SPACE
  1
 
  0
ENDBLK
  5
A07
330
A03
100
AcDbEntity
 67
    1
  8
0
100
AcDbBlockEnd
  0
ENDSEC
  0
SECTION
  2
ENTITIES
  0
LINE
  5
A08
330
A02
100
AcDbEntity
  8
Pad028
100
AcDbLine
 10
-73.480983006
 20
42.368280824
 30
0.000000000
 11
-73.480983006
 21
42.368280824
 31
1.000000000
  0
LINE
  5
A09
330
A02
100
AcDbEntity
  8
Pad028
100
AcDbLine
 10
-77.803952223
 20
42.270252379
 30
0.000000000
 11
-77.803952223
 21
42.270252379
 31
1.000000000
  0
ARC
  5
A0A
330
A02
100
AcDbEntity
  8
Pad028
100
AcDbCircle
 10
-75.595317732
 20
40.239997792
 30
0.000000000
 40
3.000000000
100
AcDbArc
 50
45.188368660
 51
137.409685375
  0
ARC
  5
A0B
330
A02
100
AcDbEntity
  8
Pad028
100
AcDbCircle
 10
-75.595317732
 20
40.239997792
 30
1.000000000
 40
3.000000000
100
AcDbArc
 50
45.188368660
 51
137.409685375
  0
LINE
  5
A0C
330
A02
100
AcDbEntity
  8
Pad028
100
AcDbLine
 10
-77.803952223
 20
42.270252379
 30
0.000000000
 11
-77.803952223
 21
42.270252379
 31
1.000000000
  0
LINE
  5
A0D
330
A02
100
AcDbEntity
  8
Pad028
100
AcDbLine
 10
-77.801090262
 20
-42.273365582
 30
0.000000000
 11
-77.801090262
 21
-42.273365582
 31
1.000000000
  0
ARC
  5
A0E
330
A02
100
AcDbEntity
  8
Pad028
100
AcDbCircle
 10
-31.819799330
 20
0.000000000
 30
0.000000000
 40
62.460519958
100
AcDbArc
 50
137.409685375
 51
-137.405806235
  0
ARC
  5
A0F
330
A02
100
AcDbEntity
  8
Pad028
100
AcDbCircle
 10
-31.819799330
 20
0.000000000
 30
1.000000000
 40
62.460519958
100
AcDbArc
 50
137.409685375
 51
-137.405806235
  0
LINE
  5
A10
330
A02
100
AcDbEntity
  8
Pad028
100
AcDbLine
 10
-77.801090262
 20
-42.273365582
 30
0.000000000
 11
-77.801090262
 21
-42.273365582
 31
1.000000000
  0
LINE
  5
A11
330
A02
100
AcDbEntity
  8
Pad028
100
AcDbLine
 10
-73.480966510
 20
-42.368301993
 30
0.000000000
 11
-73.480966510
 21
-42.368301993
 31
1.000000000
  0
ARC
  5
A12
330
A02
100
AcDbEntity
  8
Pad028
100
AcDbCircle
 10
-75.595301675
 20
-40.240019397
 30
0.000000000
 40
3.000000000
100
AcDbArc
 50
-137.329432311
 51
-45.188356828
  0
ARC
  5
A13
330
A02
100
AcDbEntity
  8
Pad028
100
AcDbCircle
 10
-75.595301675
 20
-40.240019397
 30
1.000000000
 40
3.000000000
100
AcDbArc
 50
-137.329432311
 51
-45.188356828
  0
LINE
  5
A14
330
A02
100
AcDbEntity
  8
Pad028
100
AcDbLine
 10
-65.715531690
 20
-42.381064328
 30
0.000000000
 11
-65.715531690
 21
-42.381064328
 31
1.000000000
  0
LINE
  5
A15
330
A02
100
AcDbEntity
  8
Pad028
100
AcDbLine
 10
-73.480966510
 20
-42.368301993
 30
0.000000000
 11
-73.480966510
 21
-42.368301993
 31
1.000000000
  0
ARC
  5
A16
330
A02
100
AcDbEntity
  8
Pad028
100
AcDbCircle
 10
-69.604651283
 20
-46.270187734
 30
0.000000000
 40
5.500048370
100
AcDbArc
 50
45.000028086
 51
134.811643172
  0
ARC
  5
A17
330
A02
100
AcDbEntity
  8
Pad028
100
AcDbCircle
 10
-69.604651283
 20
-46.270187734
 30
1.000000000
 40
5.500048370
100
AcDbArc
 50
45.000028086
 51
134.811643172
  0
LINE
  5
A18
330
A02
100
AcDbEntity
  8
Pad028
100
AcDbLine
 10
-65.715531690
 20
-42.381064328
 30
0.000000000
 11
-65.715531690
 21
-42.381064328
 31
1.000000000
  0
LINE
  5
A19
330
A02
100
AcDbEntity
  8
Pad028
100
AcDbLine
 10
-43.372749328
 20
-64.723824786
 30
0.000000000
 11
-43.372749328
 21
-64.723824786
 31
1.000000000
  0
LINE
  5
A1A
330
A02
100
AcDbEntity
  8
Pad028
100
AcDbLine
 10
-65.715531690
 20
-42.381064328
 30
0.000000000
 11
-43.372749328
 21
-64.723824786
 31
0.000000000
  0
LINE
  5
A1B
330
A02
100
AcDbEntity
  8
Pad028
100
AcDbLine
 10
-65.715531690
 20
-42.381064328
 30
1.000000000
 11
-43.372749328
 21
-64.723824786
 31
1.000000000
  0
LINE
  5
A1C
330
A02
100
AcDbEntity
  8
Pad028
100
AcDbLine
 10
-41.769686111
 20
-68.318907286
 30
0.000000000
 11
-41.769686111
 21
-68.318907286
 31
1.000000000
  0
LINE
  5
A1D
330
A02
100
AcDbEntity
  8
Pad028
100
AcDbLine
 10
-43.372749328
 20
-64.723824786
 30
0.000000000
 11
-43.372749328
 21
-64.723824786
 31
1.000000000
  0
ARC
  5
A1E
330
A02
100
AcDbEntity
  8
Pad028
100
AcDbCircle
 10
-47.261868921
 20
-68.612948191
 30
0.000000000
 40
5.500048370
100
AcDbArc
 50
3.064580543
 51
45.000028086
  0
ARC
  5
A1F
330
A02
100
AcDbEntity
  8
Pad028
100
AcDbCircle
 10
-47.261868921
 20
-68.612948191
 30
1.000000000
 40
5.500048370
100
AcDbArc
 50
3.064580543
 51
45.000028086
  0
LINE
  5
A20
330
A02
100
AcDbEntity
  8
Pad028
100
AcDbLine
 10
-41.769686111
 20
-68.318907286
 30
0.000000000
 11
-41.769686111
 21
-68.318907286
 31
1.000000000
  0
LINE
  5
A21
330
A02
100
AcDbEntity
  8
Pad028
100
AcDbLine
 10
-37.076938346
 20
-70.632398562
 30
0.000000000
 11
-37.076938346
 21
-70.632398562
 31
1.000000000
  0
ARC
  5
A22
330
A02
100
AcDbEntity
  8
Pad028
100
AcDbCircle
 10
-38.773976383
 20
-68.158522675
 30
0.000000000
 40
3.000000000
100
AcDbArc
 50
-176.935417661
 51
-55.550520411
  0
ARC
  5
A23
330
A02
100
AcDbEntity
  8
Pad028
100
AcDbCircle
 10
-38.773976383
 20
-68.158522675
 30
1.000000000
 40
3.000000000
100
AcDbArc
 50
-176.935417661
 51
-55.550520411
  0
LINE
  5
A24
330
A02
100
AcDbEntity
  8
Pad028
100
AcDbLine
 10
-20.672237323
 20
-65.546532131
 30
0.000000000
 11
-20.672237323
 21
-65.546532131
 31
1.000000000
  0
LINE
  5
A25
330
A02
100
AcDbEntity
  8
Pad028
100
AcDbLine
 10
-37.076938346
 20
-70.632398562
 30
0.000000000
 11
-37.076938346
 21
-70.632398562
 31
1.000000000
  0
ARC
  5
A26
330
A02
100
AcDbEntity
  8
Pad028
100
AcDbCircle
 10
-20.672237323
 20
-94.546532131
 30
0.000000000
 40
29.000000000
100
AcDbArc
 50
90.000000000
 51
124.449479589
  0
ARC
  5
A27
330
A02
100
AcDbEntity
  8
Pad028
100
AcDbCircle
 10
-20.672237323
 20
-94.546532131
 30
1.000000000
 40
29.000000000
100
AcDbArc
 50
90.000000000
 51
124.449479589
  0
LINE
  5
A28
330
A02
100
AcDbEntity
  8
Pad028
100
AcDbLine
 10
-20.672237323
 20
-65.546532131
 30
0.000000000
 11
-20.672237323
 21
-65.546532131
 31
1.000000000
  0
LINE
  5
A29
330
A02
100
AcDbEntity
  8
Pad028
100
AcDbLine
 10
20.672237323
 20
-65.546532131
 30
0.000000000
 11
20.672237323
 21
-65.546532131
 31
1.000000000
  0
LINE
  5
A2A
330
A02
100
AcDbEntity
  8
Pad028
100
AcDbLine
 10
-20.672237323
 20
-65.546532131
 30
0.000000000
 11
20.672237323
 21
-65.546532131
 31
0.000000000
  0
LINE
  5
A2B
330
A02
100
AcDbEntity
  8
Pad028
100
AcDbLine
 10
-20.672237323
 20
-65.546532131
 30
1.000000000
 11
20.672237323
 21
-65.546532131
 31
1.000000000
  0
LINE
  5
A2C
330
A02
100
AcDbEntity
  8
Pad028
100
AcDbLine
 10
37.076932633
 20
-70.632394643
 30
0.000000000
 11
37.076932633
 21
-70.632394643
 31
1.000000000
  0
LINE
  5
A2D
330
A02
100
AcDbEntity
  8
Pad028
100
AcDbLine
 10
20.672237323
 20
-65.546532131
 30
0.000000000
 11
20.672237323
 21
-65.546532131
 31
1.000000000
  0
ARC
  5
A2E
330
A02
100
AcDbEntity
  8
Pad028
100
AcDbCircle
 10
20.672237323
 20
-94.546532131
 30
0.000000000
 40
29.000000000
100
AcDbArc
 50
55.550534099
 51
90.000000000
  0
ARC
  5
A2F
330
A02
100
AcDbEntity
  8
Pad028
100
AcDbCircle
 10
20.672237323
 20
-94.546532131
 30
1.000000000
 40
29.000000000
100
AcDbArc
 50
55.550534099
 51
90.000000000
  0
LINE
  5
A30
330
A02
100
AcDbEntity
  8
Pad028
100
AcDbLine
 10
37.076932633
 20
-70.632394643
 30
0.000000000
 11
37.076932633
 21
-70.632394643
 31
1.000000000
  0
LINE
  5
A31
330
A02
100
AcDbEntity
  8
Pad028
100
AcDbLine
 10
41.769679176
 20
-68.318914745
 30
0.000000000
 11
41.769679176
 21
-68.318914745
 31
1.000000000
  0
ARC
  5
A32
330
A02
100
AcDbEntity
  8
Pad028
100
AcDbCircle
 10
38.773970079
 20
-68.158518351
 30
0.000000000
 40
3.000000000
100
AcDbArc
 50
-124.449465901
 51
-3.064806819
  0
ARC
  5
A33
330
A02
100
AcDbEntity
  8
Pad028
100
AcDbCircle
 10
38.773970079
 20
-68.158518351
 30
1.000000000
 40
3.000000000
100
AcDbArc
 50
-124.449465901
 51
-3.064806819
  0
LINE
  5
A34
330
A02
100
AcDbEntity
  8
Pad028
100
AcDbLine
 10
43.372737702
 20
-64.723858735
 30
0.000000000
 11
43.372737702
 21
-64.723858735
 31
1.000000000
  0
LINE
  5
A35
330
A02
100
AcDbEntity
  8
Pad028
100
AcDbLine
 10
41.769679176
 20
-68.318914745
 30
0.000000000
 11
41.769679176
 21
-68.318914745
 31
1.000000000
  0
ARC
  5
A36
330
A02
100
AcDbEntity
  8
Pad028
100
AcDbCircle
 10
47.261857444
 20
-68.612977207
 30
0.000000000
 40
5.500044987
100
AcDbArc
 50
135.000009362
 51
176.935193181
  0
ARC
  5
A37
330
A02
100
AcDbEntity
  8
Pad028
100
AcDbCircle
 10
47.261857444
 20
-68.612977207
 30
1.000000000
 40
5.500044987
100
AcDbArc
 50
135.000009362
 51
176.935193181
  0
LINE
  5
A38
330
A02
100
AcDbEntity
  8
Pad028
100
AcDbLine
 10
43.372737702
 20
-64.723858735
 30
0.000000000
 11
43.372737702
 21
-64.723858735
 31
1.000000000
  0
LINE
  5
A39
330
A02
100
AcDbEntity
  8
Pad028
100
AcDbLine
 10
65.715567003
 20
-42.381022132
 30
0.000000000
 11
65.715567003
 21
-42.381022132
 31
1.000000000
  0
LINE
  5
A3A
330
A02
100
AcDbEntity
  8
Pad028
100
AcDbLine
 10
43.372737702
 20
-64.723858735
 30
0.000000000
 11
65.715567003
 21
-42.381022132
 31
0.000000000
  0
LINE
  5
A3B
330
A02
100
AcDbEntity
  8
Pad028
100
AcDbLine
 10
43.372737702
 20
-64.723858735
 30
1.000000000
 11
65.715567003
 21
-42.381022132
 31
1.000000000
  0
LINE
  5
A3C
330
A02
100
AcDbEntity
  8
Pad028
100
AcDbLine
 10
73.480997591
 20
-42.368255278
 30
0.000000000
 11
73.480997591
 21
-42.368255278
 31
1.000000000
  0
LINE
  5
A3D
330
A02
100
AcDbEntity
  8
Pad028
100
AcDbLine
 10
65.715567003
 20
-42.381022132
 30
0.000000000
 11
65.715567003
 21
-42.381022132
 31
1.000000000
  0
ARC
  5
A3E
330
A02
100
AcDbEntity
  8
Pad028
100
AcDbCircle
 10
69.604686746
 20
-46.270140604
 30
0.000000000
 40
5.500044987
100
AcDbArc
 50
45.188386164
 51
135.000009362
  0
ARC
  5
A3F
330
A02
100
AcDbEntity
  8
Pad028
100
AcDbCircle
 10
69.604686746
 20
-46.270140604
 30
1.000000000
 40
5.500044987
100
AcDbArc
 50
45.188386164
 51
135.000009362
  0
LINE
  5
A40
330
A02
100
AcDbEntity
  8
Pad028
100
AcDbLine
 10
73.480997591
 20
-42.368255278
 30
0.000000000
 11
73.480997591
 21
-42.368255278
 31
1.000000000
  0
LINE
  5
A41
330
A02
100
AcDbEntity
  8
Pad028
100
AcDbLine
 10
77.803966883
 20
-42.270225397
 30
0.000000000
 11
77.803966883
 21
-42.270225397
 31
1.000000000
  0
ARC
  5
A42
330
A02
100
AcDbEntity
  8
Pad028
100
AcDbCircle
 10
75.595331666
 20
-40.239971599
 30
0.000000000
 40
3.000000000
100
AcDbArc
 50
-134.811613836
 51
-42.590294145
  0
ARC
  5
A43
330
A02
100
AcDbEntity
  8
Pad028
100
AcDbCircle
 10
75.595331666
 20
-40.239971599
 30
1.000000000
 40
3.000000000
100
AcDbArc
 50
-134.811613836
 51
-42.590294145
  0
LINE
  5
A44
330
A02
100
AcDbEntity
  8
Pad028
100
AcDbLine
 10
77.803966883
 20
-42.270225397
 30
0.000000000
 11
77.803966883
 21
-42.270225397
 31
1.000000000
  0
LINE
  5
A45
330
A02
100
AcDbEntity
  8
Pad028
100
AcDbLine
 10
77.806790568
 20
42.267153411
 30
0.000000000
 11
77.806790568
 21
42.267153411
 31
1.000000000
  0
ARC
  5
A46
330
A02
100
AcDbEntity
  8
Pad028
100
AcDbCircle
 10
31.819810353
 20
0.000000000
 30
0.000000000
 40
62.460504376
100
AcDbArc
 50
-42.590294145
 51
42.586466601
  0
ARC
  5
A47
330
A02
100
AcDbEntity
  8
Pad028
100
AcDbCircle
 10
31.819810353
 20
0.000000000
 30
1.000000000
 40
62.460504376
100
AcDbArc
 50
-42.590294145
 51
42.586466601
  0
LINE
  5
A48
330
A02
100
AcDbEntity
  8
Pad028
100
AcDbLine
 10
77.806790568
 20
42.267153411
 30
0.000000000
 11
77.806790568
 21
42.267153411
 31
1.000000000
  0
LINE
  5
A49
330
A02
100
AcDbEntity
  8
Pad028
100
AcDbLine
 10
73.480981194
 20
42.368276547
 30
0.000000000
 11
73.480981194
 21
42.368276547
 31
1.000000000
  0
ARC
  5
A4A
330
A02
100
AcDbEntity
  8
Pad028
100
AcDbCircle
 10
75.595315609
 20
40.239993205
 30
0.000000000
 40
3.000000000
100
AcDbArc
 50
42.510092680
 51
134.811622958
  0
ARC
  5
A4B
330
A02
100
AcDbEntity
  8
Pad028
100
AcDbCircle
 10
75.595315609
 20
40.239993205
 30
1.000000000
 40
3.000000000
100
AcDbArc
 50
42.510092680
 51
134.811622958
  0
LINE
  5
A4C
330
A02
100
AcDbEntity
  8
Pad028
100
AcDbLine
 10
65.715591614
 20
42.381041522
 30
0.000000000
 11
65.715591614
 21
42.381041522
 31
1.000000000
  0
LINE
  5
A4D
330
A02
100
AcDbEntity
  8
Pad028
100
AcDbLine
 10
73.480981194
 20
42.368276547
 30
0.000000000
 11
73.480981194
 21
42.368276547
 31
1.000000000
  0
ARC
  5
A4E
330
A02
100
AcDbEntity
  8
Pad028
100
AcDbCircle
 10
69.604689912
 20
46.270140939
 30
0.000000000
 40
5.500016349
100
AcDbArc
 50
-134.999991762
 51
-45.188377042
  0
ARC
  5
A4F
330
A02
100
AcDbEntity
  8
Pad028
100
AcDbCircle
 10
69.604689912
 20
46.270140939
 30
1.000000000
 40
5.500016349
100
AcDbArc
 50
-134.999991762
 51
-45.188377042
  0
LINE
  5
A50
330
A02
100
AcDbEntity
  8
Pad028
100
AcDbLine
 10
42.381022528
 20
65.715519995
 30
0.000000000
 11
42.381022528
 21
65.715519995
 31
1.000000000
  0
LINE
  5
A51
330
A02
100
AcDbEntity
  8
Pad028
100
AcDbLine
 10
65.715591614
 20
42.381041522
 30
0.000000000
 11
65.715591614
 21
42.381041522
 31
1.000000000
  0
LINE
  5
A52
330
A02
100
AcDbEntity
  8
Pad028
100
AcDbLine
 10
42.381022528
 20
65.715519995
 30
0.000000000
 11
65.715591614
 21
42.381041522
 31
0.000000000
  0
LINE
  5
A53
330
A02
100
AcDbEntity
  8
Pad028
100
AcDbLine
 10
42.381022528
 20
65.715519995
 30
1.000000000
 11
65.715591614
 21
42.381041522
 31
1.000000000
  0
LINE
  5
A54
330
A02
100
AcDbEntity
  8
Pad028
100
AcDbLine
 10
42.368255119
 20
73.480992815
 30
0.000000000
 11
42.368255119
 21
73.480992815
 31
1.000000000
  0
LINE
  5
A55
330
A02
100
AcDbEntity
  8
Pad028
100
AcDbLine
 10
42.381022528
 20
65.715519995
 30
0.000000000
 11
42.381022528
 21
65.715519995
 31
1.000000000
  0
ARC
  5
A56
330
A02
100
AcDbEntity
  8
Pad028
100
AcDbCircle
 10
46.270162549
 20
69.604661134
 30
0.000000000
 40
5.500075354
100
AcDbArc
 50
135.188394461
 51
-134.999991762
  0
ARC
  5
A57
330
A02
100
AcDbEntity
  8
Pad028
100
AcDbCircle
 10
46.270162549
 20
69.604661134
 30
1.000000000
 40
5.500075354
100
AcDbArc
 50
135.188394461
 51
-134.999991762
  0
LINE
  5
A58
330
A02
100
AcDbEntity
  8
Pad028
100
AcDbLine
 10
42.368255119
 20
73.480992815
 30
0.000000000
 11
42.368255119
 21
73.480992815
 31
1.000000000
  0
LINE
  5
A59
330
A02
100
AcDbEntity
  8
Pad028
100
AcDbLine
 10
42.271329973
 20
77.802945496
 30
0.000000000
 11
42.271329973
 21
77.802945496
 31
1.000000000
  0
ARC
  5
A5A
330
A02
100
AcDbEntity
  8
Pad028
100
AcDbCircle
 10
40.239971134
 20
75.595326583
 30
0.000000000
 40
3.000000000
100
AcDbArc
 50
-44.811605539
 51
47.381032577
  0
ARC
  5
A5B
330
A02
100
AcDbEntity
  8
Pad028
100
AcDbCircle
 10
40.239971134
 20
75.595326583
 30
1.000000000
 40
3.000000000
100
AcDbArc
 50
-44.811605539
 51
47.381032577
  0
LINE
  5
A5C
330
A02
100
AcDbEntity
  8
Pad028
100
AcDbLine
 10
42.271329973
 20
77.802945496
 30
0.000000000
 11
42.271329973
 21
77.802945496
 31
1.000000000
  0
LINE
  5
A5D
330
A02
100
AcDbEntity
  8
Pad028
100
AcDbLine
 10
-42.270222144
 20
77.803963875
 30
0.000000000
 11
-42.270222144
 21
77.803963875
 31
1.000000000
  0
ARC
  5
A5E
330
A02
100
AcDbEntity
  8
Pad028
100
AcDbCircle
 10
0.000000000
 20
31.819809729
 30
0.000000000
 40
62.460500420
100
AcDbArc
 50
47.408326213
 51
132.590293428
  0
ARC
  5
A5F
330
A02
100
AcDbEntity
  8
Pad028
100
AcDbCircle
 10
0.000000000
 20
31.819809729
 30
1.000000000
 40
62.460500420
100
AcDbArc
 50
47.408326213
 51
132.590293428
  0
LINE
  5
A60
330
A02
100
AcDbEntity
  8
Pad028
100
AcDbLine
 10
-42.270222144
 20
77.803963875
 30
0.000000000
 11
-42.270222144
 21
77.803963875
 31
1.000000000
  0
LINE
  5
A61
330
A02
100
AcDbEntity
  8
Pad028
100
AcDbLine
 10
-42.368252581
 20
73.480995089
 30
0.000000000
 11
-42.368252581
 21
73.480995089
 31
1.000000000
  0
ARC
  5
A62
330
A02
100
AcDbEntity
  8
Pad028
100
AcDbCircle
 10
-40.239968375
 20
75.595328633
 30
0.000000000
 40
3.000000000
100
AcDbArc
 50
132.590293428
 51
-135.188400467
  0
ARC
  5
A63
330
A02
100
AcDbEntity
  8
Pad028
100
AcDbCircle
 10
-40.239968375
 20
75.595328633
 30
1.000000000
 40
3.000000000
100
AcDbArc
 50
132.590293428
 51
-135.188400467
  0
LINE
  5
A64
330
A02
100
AcDbEntity
  8
Pad028
100
AcDbLine
 10
-42.381020412
 20
65.715605830
 30
0.000000000
 11
-42.381020412
 21
65.715605830
 31
1.000000000
  0
LINE
  5
A65
330
A02
100
AcDbEntity
  8
Pad028
100
AcDbLine
 10
-42.368252581
 20
73.480995089
 30
0.000000000
 11
-42.368252581
 21
73.480995089
 31
1.000000000
  0
ARC
  5
A66
330
A02
100
AcDbEntity
  8
Pad028
100
AcDbCircle
 10
-46.270118559
 20
69.604705400
 30
0.000000000
 40
5.500016351
100
AcDbArc
 50
-45.000010486
 51
44.811599533
  0
ARC
  5
A67
330
A02
100
AcDbEntity
  8
Pad028
100
AcDbCircle
 10
-46.270118559
 20
69.604705400
 30
1.000000000
 40
5.500016351
100
AcDbArc
 50
-45.000010486
 51
44.811599533
  0
LINE
  5
A68
330
A02
100
AcDbEntity
  8
Pad028
100
AcDbLine
 10
-65.715507363
 20
42.381045221
 30
0.000000000
 11
-65.715507363
 21
42.381045221
 31
1.000000000
  0
LINE
  5
A69
330
A02
100
AcDbEntity
  8
Pad028
100
AcDbLine
 10
-42.381020412
 20
65.715605830
 30
0.000000000
 11
-42.381020412
 21
65.715605830
 31
1.000000000
  0
LINE
  5
A6A
330
A02
100
AcDbEntity
  8
Pad028
100
AcDbLine
 10
-65.715507363
 20
42.381045221
 30
0.000000000
 11
-42.381020412
 21
65.715605830
 31
0.000000000
  0
LINE
  5
A6B
330
A02
100
AcDbEntity
  8
Pad028
100
AcDbLine
 10
-65.715507363
 20
42.381045221
 30
1.000000000
 11
-42.381020412
 21
65.715605830
 31
1.000000000
  0
LINE
  5
A6C
330
A02
100
AcDbEntity
  8
Pad028
100
AcDbLine
 10
-73.480983006
 20
42.368280824
 30
0.000000000
 11
-73.480983006
 21
42.368280824
 31
1.000000000
  0
LINE
  5
A6D
330
A02
100
AcDbEntity
  8
Pad028
100
AcDbLine
 10
-65.715507363
 20
42.381045221
 30
0.000000000
 11
-65.715507363
 21
42.381045221
 31
1.000000000
  0
ARC
  5
A6E
330
A02
100
AcDbEntity
  8
Pad028
100
AcDbCircle
 10
-69.604648401
 20
46.270187683
 30
0.000000000
 40
5.500077009
100
AcDbArc
 50
-134.811631340
 51
-45.000010486
  0
ARC
  5
A6F
330
A02
100
AcDbEntity
  8
Pad028
100
AcDbCircle
 10
-69.604648401
 20
46.270187683
 30
1.000000000
 40
5.500077009
100
AcDbArc
 50
-134.811631340
 51
-45.000010486
  0
LINE
  5
A70
330
A02
100
AcDbEntity
  8
Pad028
100
AcDbLine
 10
60.765850531
 20
-28.946030719
 30
0.000000000
 11
60.765850531
 21
-28.946030719
 31
1.000000000
  0
LINE
  5
A71
330
A02
100
AcDbEntity
  8
Pad028
100
AcDbLine
 10
60.765841071
 20
28.946040178
 30
0.000000000
 11
60.765841071
 21
28.946040178
 31
1.000000000
  0
ARC
  5
A72
330
A02
100
AcDbEntity
  8
Pad028
100
AcDbCircle
 10
31.819810353
 20
0.000000000
 30
0.000000000
 40
40.935875908
100
AcDbArc
 50
-44.999990638
 51
45.000009362
  0
ARC
  5
A73
330
A02
100
AcDbEntity
  8
Pad028
100
AcDbCircle
 10
31.819810353
 20
0.000000000
 30
1.000000000
 40
40.935875908
100
AcDbArc
 50
-44.999990638
 51
45.000009362
  0
LINE
  5
A74
330
A02
100
AcDbEntity
  8
Pad028
100
AcDbLine
 10
28.946025832
 20
60.765845020
 30
0.000000000
 11
28.946025832
 21
60.765845020
 31
1.000000000
  0
LINE
  5
A75
330
A02
100
AcDbEntity
  8
Pad028
100
AcDbLine
 10
60.765841071
 20
28.946040178
 30
0.000000000
 11
60.765841071
 21
28.946040178
 31
1.000000000
  0
LINE
  5
A76
330
A02
100
AcDbEntity
  8
Pad028
100
AcDbLine
 10
28.946025832
 20
60.765845020
 30
0.000000000
 11
60.765841071
 21
28.946040178
 31
0.000000000
  0
LINE
  5
A77
330
A02
100
AcDbEntity
  8
Pad028
100
AcDbLine
 10
28.946025832
 20
60.765845020
 30
1.000000000
 11
60.765841071
 21
28.946040178
 31
1.000000000
  0
LINE
  5
A78
330
A02
100
AcDbEntity
  8
Pad028
100
AcDbLine
 10
28.946025832
 20
60.765845020
 30
0.000000000
 11
28.946025832
 21
60.765845020
 31
1.000000000
  0
LINE
  5
A79
330
A02
100
AcDbEntity
  8
Pad028
100
AcDbLine
 10
-28.946020818
 20
60.765850033
 30
0.000000000
 11
-28.946020818
 21
60.765850033
 31
1.000000000
  0
ARC
  5
A7A
330
A02
100
AcDbEntity
  8
Pad028
100
AcDbCircle
 10
0.000000000
 20
31.819809729
 30
0.000000000
 40
40.935868997
100
AcDbArc
 50
45.000009362
 51
134.999980714
  0
ARC
  5
A7B
330
A02
100
AcDbEntity
  8
Pad028
100
AcDbCircle
 10
0.000000000
 20
31.819809729
 30
1.000000000
 40
40.935868997
100
AcDbArc
 50
45.000009362
 51
134.999980714
  0
LINE
  5
A7C
330
A02
100
AcDbEntity
  8
Pad028
100
AcDbLine
 10
-60.765836058
 20
28.946056215
 30
0.000000000
 11
-60.765836058
 21
28.946056215
 31
1.000000000
  0
LINE
  5
A7D
330
A02
100
AcDbEntity
  8
Pad028
100
AcDbLine
 10
-28.946020818
 20
60.765850033
 30
0.000000000
 11
-28.946020818
 21
60.765850033
 31
1.000000000
  0
LINE
  5
A7E
330
A02
100
AcDbEntity
  8
Pad028
100
AcDbLine
 10
-60.765836058
 20
28.946056215
 30
0.000000000
 11
-28.946020818
 21
60.765850033
 31
0.000000000
  0
LINE
  5
A7F
330
A02
100
AcDbEntity
  8
Pad028
100
AcDbLine
 10
-60.765836058
 20
28.946056215
 30
1.000000000
 11
-28.946020818
 21
60.765850033
 31
1.000000000
  0
LINE
  5
A80
330
A02
100
AcDbEntity
  8
Pad028
100
AcDbLine
 10
-60.765836058
 20
28.946056215
 30
0.000000000
 11
-60.765836058
 21
28.946056215
 31
1.000000000
  0
LINE
  5
A81
330
A02
100
AcDbEntity
  8
Pad028
100
AcDbLine
 10
-60.765831612
 20
-28.946060660
 30
0.000000000
 11
-60.765831612
 21
-28.946060660
 31
1.000000000
  0
ARC
  5
A82
330
A02
100
AcDbEntity
  8
Pad028
100
AcDbCircle
 10
-31.819799330
 20
0.000000000
 30
0.000000000
 40
40.935891497
100
AcDbArc
 50
134.999980714
 51
-134.999971914
  0
ARC
  5
A83
330
A02
100
AcDbEntity
  8
Pad028
100
AcDbCircle
 10
-31.819799330
 20
0.000000000
 30
1.000000000
 40
40.935891497
100
AcDbArc
 50
134.999980714
 51
-134.999971914
  0
LINE
  5
A84
330
A02
100
AcDbEntity
  8
Pad028
100
AcDbLine
 10
-60.765831612
 20
-28.946060660
 30
0.000000000
 11
-60.765831612
 21
-28.946060660
 31
1.000000000
  0
LINE
  5
A85
330
A02
100
AcDbEntity
  8
Pad028
100
AcDbLine
 10
-43.922700862
 20
-45.789174897
 30
0.000000000
 11
-43.922700862
 21
-45.789174897
 31
1.000000000
  0
LINE
  5
A86
330
A02
100
AcDbEntity
  8
Pad028
100
AcDbLine
 10
-60.765831612
 20
-28.946060660
 30
0.000000000
 11
-43.922700862
 21
-45.789174897
 31
0.000000000
  0
LINE
  5
A87
330
A02
100
AcDbEntity
  8
Pad028
100
AcDbLine
 10
-60.765831612
 20
-28.946060660
 30
1.000000000
 11
-43.922700862
 21
-45.789174897
 31
1.000000000
  0
LINE
  5
A88
330
A02
100
AcDbEntity
  8
Pad028
100
AcDbLine
 10
-43.922700862
 20
-45.789174897
 30
0.000000000
 11
-43.922700862
 21
-45.789174897
 31
1.000000000
  0
LINE
  5
A89
330
A02
100
AcDbEntity
  8
Pad028
100
AcDbLine
 10
-39.680062255
 20
-47.546532131
 30
0.000000000
 11
-39.680062255
 21
-47.546532131
 31
1.000000000
  0
ARC
  5
A8A
330
A02
100
AcDbEntity
  8
Pad028
100
AcDbCircle
 10
-39.680062255
 20
-41.546532131
 30
0.000000000
 40
6.000000000
100
AcDbArc
 50
-134.999971914
 51
-90.000000000
  0
ARC
  5
A8B
330
A02
100
AcDbEntity
  8
Pad028
100
AcDbCircle
 10
-39.680062255
 20
-41.546532131
 30
1.000000000
 40
6.000000000
100
AcDbArc
 50
-134.999971914
 51
-90.000000000
  0
LINE
  5
A8C
330
A02
100
AcDbEntity
  8
Pad028
100
AcDbLine
 10
-39.680062255
 20
-47.546532131
 30
0.000000000
 11
-39.680062255
 21
-47.546532131
 31
1.000000000
  0
LINE
  5
A8D
330
A02
100
AcDbEntity
  8
Pad028
100
AcDbLine
 10
39.680073249
 20
-47.546532131
 30
0.000000000
 11
39.680073249
 21
-47.546532131
 31
1.000000000
  0
LINE
  5
A8E
330
A02
100
AcDbEntity
  8
Pad028
100
AcDbLine
 10
-39.680062255
 20
-47.546532131
 30
0.000000000
 11
39.680073249
 21
-47.546532131
 31
0.000000000
  0
LINE
  5
A8F
330
A02
100
AcDbEntity
  8
Pad028
100
AcDbLine
 10
-39.680062255
 20
-47.546532131
 30
1.000000000
 11
39.680073249
 21
-47.546532131
 31
1.000000000
  0
LINE
  5
A90
330
A02
100
AcDbEntity
  8
Pad028
100
AcDbLine
 10
39.680073249
 20
-47.546532131
 30
0.000000000
 11
39.680073249
 21
-47.546532131
 31
1.000000000
  0
LINE
  5
A91
330
A02
100
AcDbEntity
  8
Pad028
100
AcDbLine
 10
43.922714629
 20
-45.789172124
 30
0.000000000
 11
43.922714629
 21
-45.789172124
 31
1.000000000
  0
ARC
  5
A92
330
A02
100
AcDbEntity
  8
Pad028
100
AcDbCircle
 10
39.680073249
 20
-41.546532131
 30
0.000000000
 40
6.000000000
100
AcDbArc
 50
-90.000000000
 51
-44.999990638
  0
ARC
  5
A93
330
A02
100
AcDbEntity
  8
Pad028
100
AcDbCircle
 10
39.680073249
 20
-41.546532131
 30
1.000000000
 40
6.000000000
100
AcDbArc
 50
-90.000000000
 51
-44.999990638
  0
LINE
  5
A94
330
A02
100
AcDbEntity
  8
Pad028
100
AcDbLine
 10
60.765850531
 20
-28.946030719
 30
0.000000000
 11
60.765850531
 21
-28.946030719
 31
1.000000000
  0
LINE
  5
A95
330
A02
100
AcDbEntity
  8
Pad028
100
AcDbLine
 10
43.922714629
 20
-45.789172124
 30
0.000000000
 11
43.922714629
 21
-45.789172124
 31
1.000000000
  0
LINE
  5
A96
330
A02
100
AcDbEntity
  8
Pad028
100
AcDbLine
 10
60.765850531
 20
-28.946030719
 30
0.000000000
 11
43.922714629
 21
-45.789172124
 31
0.000000000
  0
LINE
  5
A97
330
A02
100
AcDbEntity
  8
Pad028
100
AcDbLine
 10
60.765850531
 20
-28.946030719
 30
1.000000000
 11
43.922714629
 21
-45.789172124
 31
1.000000000
  0
LINE
  5
A98
330
A02
100
AcDbEntity
  8
Pad028
100
AcDbLine
 10
40.573970079
 20
-68.158518351
 30
0.000000000
 11
40.573970079
 21
-68.158518351
 31
1.000000000
  0
LINE
  5
A99
330
A02
100
AcDbEntity
  8
Pad028
100
AcDbLine
 10
40.573970079
 20
-68.158518351
 30
0.000000000
 11
40.573970079
 21
-68.158518351
 31
1.000000000
  0
CIRCLE
  5
A9A
330
A02
100
AcDbEntity
  8
Pad028
100
AcDbCircle
 10
38.773970079
 20
-68.158518351
 30
0.000000000
 40
1.800000000
  0
CIRCLE
  5
A9B
330
A02
100
AcDbEntity
  8
Pad028
100
AcDbCircle
 10
38.773970079
 20
-68.158518351
 30
1.000000000
 40
1.800000000
  0
LINE
  5
A9C
330
A02
100
AcDbEntity
  8
Pad028
100
AcDbLine
 10
77.395331666
 20
-40.239971599
 30
0.000000000
 11
77.395331666
 21
-40.239971599
 31
1.000000000
  0
LINE
  5
A9D
330
A02
100
AcDbEntity
  8
Pad028
100
AcDbLine
 10
77.395331666
 20
-40.239971599
 30
0.000000000
 11
77.395331666
 21
-40.239971599
 31
1.000000000
  0
CIRCLE
  5
A9E
330
A02
100
AcDbEntity
  8
Pad028
100
AcDbCircle
 10
75.595331666
 20
-40.239971599
 30
0.000000000
 40
1.800000000
  0
CIRCLE
  5
A9F
330
A02
100
AcDbEntity
  8
Pad028
100
AcDbCircle
 10
75.595331666
 20
-40.239971599
 30
1.000000000
 40
1.800000000
  0
LINE
  5
AA0
330
A02
100
AcDbEntity
  8
Pad028
100
AcDbLine
 10
77.395315609
 20
40.239993205
 30
0.000000000
 11
77.395315609
 21
40.239993205
 31
1.000000000
  0
LINE
  5
AA1
330
A02
100
AcDbEntity
  8
Pad028
100
AcDbLine
 10
77.395315609
 20
40.239993205
 30
0.000000000
 11
77.395315609
 21
40.239993205
 31
1.000000000
  0
CIRCLE
  5
AA2
330
A02
100
AcDbEntity
  8
Pad028
100
AcDbCircle
 10
75.595315609
 20
40.239993205
 30
0.000000000
 40
1.800000000
  0
CIRCLE
  5
AA3
330
A02
100
AcDbEntity
  8
Pad028
100
AcDbCircle
 10
75.595315609
 20
40.239993205
 30
1.000000000
 40
1.800000000
  0
LINE
  5
AA4
330
A02
100
AcDbEntity
  8
Pad028
100
AcDbLine
 10
42.039971134
 20
75.595326583
 30
0.000000000
 11
42.039971134
 21
75.595326583
 31
1.000000000
  0
LINE
  5
AA5
330
A02
100
AcDbEntity
  8
Pad028
100
AcDbLine
 10
42.039971134
 20
75.595326583
 30
0.000000000
 11
42.039971134
 21
75.595326583
 31
1.000000000
  0
CIRCLE
  5
AA6
330
A02
100
AcDbEntity
  8
Pad028
100
AcDbCircle
 10
40.239971134
 20
75.595326583
 30
0.000000000
 40
1.800000000
  0
CIRCLE
  5
AA7
330
A02
100
AcDbEntity
  8
Pad028
100
AcDbCircle
 10
40.239971134
 20
75.595326583
 30
1.000000000
 40
1.800000000
  0
LINE
  5
AA8
330
A02
100
AcDbEntity
  8
Pad028
100
AcDbLine
 10
-38.439968375
 20
75.595328633
 30
0.000000000
 11
-38.439968375
 21
75.595328633
 31
1.000000000
  0
LINE
  5
AA9
330
A02
100
AcDbEntity
  8
Pad028
100
AcDbLine
 10
-38.439968375
 20
75.595328633
 30
0.000000000
 11
-38.439968375
 21
75.595328633
 31
1.000000000
  0
CIRCLE
  5
AAA
330
A02
100
AcDbEntity
  8
Pad028
100
AcDbCircle
 10
-40.239968375
 20
75.595328633
 30
0.000000000
 40
1.800000000
  0
CIRCLE
  5
AAB
330
A02
100
AcDbEntity
  8
Pad028
100
AcDbCircle
 10
-40.239968375
 20
75.595328633
 30
1.000000000
 40
1.800000000
  0
LINE
  5
AAC
330
A02
100
AcDbEntity
  8
Pad028
100
AcDbLine
 10
-73.795317732
 20
40.239997792
 30
0.000000000
 11
-73.795317732
 21
40.239997792
 31
1.000000000
  0
LINE
  5
AAD
330
A02
100
AcDbEntity
  8
Pad028
100
AcDbLine
 10
-73.795317732
 20
40.239997792
 30
0.000000000
 11
-73.795317732
 21
40.239997792
 31
1.000000000
  0
CIRCLE
  5
AAE
330
A02
100
AcDbEntity
  8
Pad028
100
AcDbCircle
 10
-75.595317732
 20
40.239997792
 30
0.000000000
 40
1.800000000
  0
CIRCLE
  5
AAF
330
A02
100
AcDbEntity
  8
Pad028
100
AcDbCircle
 10
-75.595317732
 20
40.239997792
 30
1.000000000
 40
1.800000000
  0
LINE
  5
AB0
330
A02
100
AcDbEntity
  8
Pad028
100
AcDbLine
 10
-73.795301675
 20
-40.240019397
 30
0.000000000
 11
-73.795301675
 21
-40.240019397
 31
1.000000000
  0
LINE
  5
AB1
330
A02
100
AcDbEntity
  8
Pad028
100
AcDbLine
 10
-73.795301675
 20
-40.240019397
 30
0.000000000
 11
-73.795301675
 21
-40.240019397
 31
1.000000000
  0
CIRCLE
  5
AB2
330
A02
100
AcDbEntity
  8
Pad028
100
AcDbCircle
 10
-75.595301675
 20
-40.240019397
 30
0.000000000
 40
1.800000000
  0
CIRCLE
  5
AB3
330
A02
100
AcDbEntity
  8
Pad028
100
AcDbCircle
 10
-75.595301675
 20
-40.240019397
 30
1.000000000
 40
1.800000000
  0
LINE
  5
AB4
330
A02
100
AcDbEntity
  8
Pad028
100
AcDbLine
 10
-36.973976383
 20
-68.158522675
 30
0.000000000
 11
-36.973976383
 21
-68.158522675
 31
1.000000000
  0
LINE
  5
AB5
330
A02
100
AcDbEntity
  8
Pad028
100
AcDbLine
 10
-36.973976383
 20
-68.158522675
 30
0.000000000
 11
-36.973976383
 21
-68.158522675
 31
1.000000000
  0
CIRCLE
  5
AB6
330
A02
100
AcDbEntity
  8
Pad028
100
AcDbCircle
 10
-38.773976383
 20
-68.158522675
 30
0.000000000
 40
1.800000000
  0
CIRCLE
  5
AB7
330
A02
100
AcDbEntity
  8
Pad028
100
AcDbCircle
 10
-38.773976383
 20
-68.158522675
 30
1.000000000
 40
1.800000000
  0
ARC
  5
AB8
330
A02
100
AcDbEntity
  8
Pad028
100
AcDbCircle
 10
-75.595317732
 20
40.239997792
 30
0.000000000
 40
3.000000000
100
AcDbArc
 50
45.188368660
 51
137.409685375
  0
ARC
  5
AB9
330
A02
100
AcDbEntity
  8
Pad028
100
AcDbCircle
 10
-31.819799330
 20
0.000000000
 30
0.000000000
 40
62.460519958
100
AcDbArc
 50
137.409685375
 51
-137.405806235
  0
ARC
  5
ABA
330
A02
100
AcDbEntity
  8
Pad028
100
AcDbCircle
 10
-75.595301675
 20
-40.240019397
 30
0.000000000
 40
3.000000000
100
AcDbArc
 50
-137.329432311
 51
-45.188356828
  0
ARC
  5
ABB
330
A02
100
AcDbEntity
  8
Pad028
100
AcDbCircle
 10
-69.604651283
 20
-46.270187734
 30
0.000000000
 40
5.500048370
100
AcDbArc
 50
45.000028086
 51
134.811643172
  0
LINE
  5
ABC
330
A02
100
AcDbEntity
  8
Pad028
100
AcDbLine
 10
-65.715531690
 20
-42.381064328
 30
0.000000000
 11
-43.372749328
 21
-64.723824786
 31
0.000000000
  0
ARC
  5
ABD
330
A02
100
AcDbEntity
  8
Pad028
100
AcDbCircle
 10
-47.261868921
 20
-68.612948191
 30
0.000000000
 40
5.500048370
100
AcDbArc
 50
3.064580543
 51
45.000028086
  0
ARC
  5
ABE
330
A02
100
AcDbEntity
  8
Pad028
100
AcDbCircle
 10
-38.773976383
 20
-68.158522675
 30
0.000000000
 40
3.000000000
100
AcDbArc
 50
-176.935417661
 51
-55.550520411
  0
ARC
  5
ABF
330
A02
100
AcDbEntity
  8
Pad028
100
AcDbCircle
 10
-20.672237323
 20
-94.546532131
 30
0.000000000
 40
29.000000000
100
AcDbArc
 50
90.000000000
 51
124.449479589
  0
LINE
  5
AC0
330
A02
100
AcDbEntity
  8
Pad028
100
AcDbLine
 10
-20.672237323
 20
-65.546532131
 30
0.000000000
 11
20.672237323
 21
-65.546532131
 31
0.000000000
  0
ARC
  5
AC1
330
A02
100
AcDbEntity
  8
Pad028
100
AcDbCircle
 10
20.672237323
 20
-94.546532131
 30
0.000000000
 40
29.000000000
100
AcDbArc
 50
55.550534099
 51
90.000000000
  0
ARC
  5
AC2
330
A02
100
AcDbEntity
  8
Pad028
100
AcDbCircle
 10
38.773970079
 20
-68.158518351
 30
0.000000000
 40
3.000000000
100
AcDbArc
 50
-124.449465901
 51
-3.064806819
  0
ARC
  5
AC3
330
A02
100
AcDbEntity
  8
Pad028
100
AcDbCircle
 10
47.261857444
 20
-68.612977207
 30
0.000000000
 40
5.500044987
100
AcDbArc
 50
135.000009362
 51
176.935193181
  0
LINE
  5
AC4
330
A02
100
AcDbEntity
  8
Pad028
100
AcDbLine
 10
43.372737702
 20
-64.723858735
 30
0.000000000
 11
65.715567003
 21
-42.381022132
 31
0.000000000
  0
ARC
  5
AC5
330
A02
100
AcDbEntity
  8
Pad028
100
AcDbCircle
 10
69.604686746
 20
-46.270140604
 30
0.000000000
 40
5.500044987
100
AcDbArc
 50
45.188386164
 51
135.000009362
  0
ARC
  5
AC6
330
A02
100
AcDbEntity
  8
Pad028
100
AcDbCircle
 10
75.595331666
 20
-40.239971599
 30
0.000000000
 40
3.000000000
100
AcDbArc
 50
-134.811613836
 51
-42.590294145
  0
ARC
  5
AC7
330
A02
100
AcDbEntity
  8
Pad028
100
AcDbCircle
 10
31.819810353
 20
0.000000000
 30
0.000000000
 40
62.460504376
100
AcDbArc
 50
-42.590294145
 51
42.586466601
  0
ARC
  5
AC8
330
A02
100
AcDbEntity
  8
Pad028
100
AcDbCircle
 10
75.595315609
 20
40.239993205
 30
0.000000000
 40
3.000000000
100
AcDbArc
 50
42.510092680
 51
134.811622958
  0
ARC
  5
AC9
330
A02
100
AcDbEntity
  8
Pad028
100
AcDbCircle
 10
69.604689912
 20
46.270140939
 30
0.000000000
 40
5.500016349
100
AcDbArc
 50
-134.999991762
 51
-45.188377042
  0
LINE
  5
ACA
330
A02
100
AcDbEntity
  8
Pad028
100
AcDbLine
 10
42.381022528
 20
65.715519995
 30
0.000000000
 11
65.715591614
 21
42.381041522
 31
0.000000000
  0
ARC
  5
ACB
330
A02
100
AcDbEntity
  8
Pad028
100
AcDbCircle
 10
46.270162549
 20
69.604661134
 30
0.000000000
 40
5.500075354
100
AcDbArc
 50
135.188394461
 51
-134.999991762
  0
ARC
  5
ACC
330
A02
100
AcDbEntity
  8
Pad028
100
AcDbCircle
 10
40.239971134
 20
75.595326583
 30
0.000000000
 40
3.000000000
100
AcDbArc
 50
-44.811605539
 51
47.381032577
  0
ARC
  5
ACD
330
A02
100
AcDbEntity
  8
Pad028
100
AcDbCircle
 10
0.000000000
 20
31.819809729
 30
0.000000000
 40
62.460500420
100
AcDbArc
 50
47.408326213
 51
132.590293428
  0
ARC
  5
ACE
330
A02
100
AcDbEntity
  8
Pad028
100
AcDbCircle
 10
-40.239968375
 20
75.595328633
 30
0.000000000
 40
3.000000000
100
AcDbArc
 50
132.590293428
 51
-135.188400467
  0
ARC
  5
ACF
330
A02
100
AcDbEntity
  8
Pad028
100
AcDbCircle
 10
-46.270118559
 20
69.604705400
 30
0.000000000
 40
5.500016351
100
AcDbArc
 50
-45.000010486
 51
44.811599533
  0
LINE
  5
AD0
330
A02
100
AcDbEntity
  8
Pad028
100
AcDbLine
 10
-65.715507363
 20
42.381045221
 30
0.000000000
 11
-42.381020412
 21
65.715605830
 31
0.000000000
  0
ARC
  5
AD1
330
A02
100
AcDbEntity
  8
Pad028
100
AcDbCircle
 10
-69.604648401
 20
46.270187683
 30
0.000000000
 40
5.500077009
100
AcDbArc
 50
-134.811631340
 51
-45.000010486
  0
ARC
  5
AD2
330
A02
100
AcDbEntity
  8
Pad028
100
AcDbCircle
 10
31.819810353
 20
0.000000000
 30
0.000000000
 40
40.935875908
100
AcDbArc
 50
-44.999990638
 51
45.000009362
  0
LINE
  5
AD3
330
A02
100
AcDbEntity
  8
Pad028
100
AcDbLine
 10
28.946025832
 20
60.765845020
 30
0.000000000
 11
60.765841071
 21
28.946040178
 31
0.000000000
  0
ARC
  5
AD4
330
A02
100
AcDbEntity
  8
Pad028
100
AcDbCircle
 10
0.000000000
 20
31.819809729
 30
0.000000000
 40
40.935868997
100
AcDbArc
 50
45.000009362
 51
134.999980714
  0
LINE
  5
AD5
330
A02
100
AcDbEntity
  8
Pad028
100
AcDbLine
 10
-60.765836058
 20
28.946056215
 30
0.000000000
 11
-28.946020818
 21
60.765850033
 31
0.000000000
  0
ARC
  5
AD6
330
A02
100
AcDbEntity
  8
Pad028
100
AcDbCircle
 10
-31.819799330
 20
0.000000000
 30
0.000000000
 40
40.935891497
100
AcDbArc
 50
134.999980714
 51
-134.999971914
  0
LINE
  5
AD7
330
A02
100
AcDbEntity
  8
Pad028
100
AcDbLine
 10
-60.765831612
 20
-28.946060660
 30
0.000000000
 11
-43.922700862
 21
-45.789174897
 31
0.000000000
  0
ARC
  5
AD8
330
A02
100
AcDbEntity
  8
Pad028
100
AcDbCircle
 10
-39.680062255
 20
-41.546532131
 30
0.000000000
 40
6.000000000
100
AcDbArc
 50
-134.999971914
 51
-90.000000000
  0
LINE
  5
AD9
330
A02
100
AcDbEntity
  8
Pad028
100
AcDbLine
 10
-39.680062255
 20
-47.546532131
 30
0.000000000
 11
39.680073249
 21
-47.546532131
 31
0.000000000
  0
ARC
  5
ADA
330
A02
100
AcDbEntity
  8
Pad028
100
AcDbCircle
 10
39.680073249
 20
-41.546532131
 30
0.000000000
 40
6.000000000
100
AcDbArc
 50
-90.000000000
 51
-44.999990638
  0
LINE
  5
ADB
330
A02
100
AcDbEntity
  8
Pad028
100
AcDbLine
 10
60.765850531
 20
-28.946030719
 30
0.000000000
 11
43.922714629
 21
-45.789172124
 31
0.000000000
  0
CIRCLE
  5
ADC
330
A02
100
AcDbEntity
  8
Pad028
100
AcDbCircle
 10
38.773970079
 20
-68.158518351
 30
0.000000000
 40
1.800000000
  0
CIRCLE
  5
ADD
330
A02
100
AcDbEntity
  8
Pad028
100
AcDbCircle
 10
75.595331666
 20
-40.239971599
 30
0.000000000
 40
1.800000000
  0
CIRCLE
  5
ADE
330
A02
100
AcDbEntity
  8
Pad028
100
AcDbCircle
 10
75.595315609
 20
40.239993205
 30
0.000000000
 40
1.800000000
  0
CIRCLE
  5
ADF
330
A02
100
AcDbEntity
  8
Pad028
100
AcDbCircle
 10
40.239971134
 20
75.595326583
 30
0.000000000
 40
1.800000000
  0
CIRCLE
  5
AE0
330
A02
100
AcDbEntity
  8
Pad028
100
AcDbCircle
 10
-40.239968375
 20
75.595328633
 30
0.000000000
 40
1.800000000
  0
CIRCLE
  5
AE1
330
A02
100
AcDbEntity
  8
Pad028
100
AcDbCircle
 10
-75.595317732
 20
40.239997792
 30
0.000000000
 40
1.800000000
  0
CIRCLE
  5
AE2
330
A02
100
AcDbEntity
  8
Pad028
100
AcDbCircle
 10
-75.595301675
 20
-40.240019397
 30
0.000000000
 40
1.800000000
  0
CIRCLE
  5
AE3
330
A02
100
AcDbEntity
  8
Pad028
100
AcDbCircle
 10
-38.773976383
 20
-68.158522675
 30
0.000000000
 40
1.800000000
  0
ARC
  5
AE4
330
A02
100
AcDbEntity
  8
Pad028
100
AcDbCircle
 10
-75.595317732
 20
40.239997792
 30
1.000000000
 40
3.000000000
100
AcDbArc
 50
45.188368660
 51
137.409685375
  0
ARC
  5
AE5
330
A02
100
AcDbEntity
  8
Pad028
100
AcDbCircle
 10
-31.819799330
 20
0.000000000
 30
1.000000000
 40
62.460519958
100
AcDbArc
 50
137.409685375
 51
-137.405806235
  0
ARC
  5
AE6
330
A02
100
AcDbEntity
  8
Pad028
100
AcDbCircle
 10
-75.595301675
 20
-40.240019397
 30
1.000000000
 40
3.000000000
100
AcDbArc
 50
-137.329432311
 51
-45.188356828
  0
ARC
  5
AE7
330
A02
100
AcDbEntity
  8
Pad028
100
AcDbCircle
 10
-69.604651283
 20
-46.270187734
 30
1.000000000
 40
5.500048370
100
AcDbArc
 50
45.000028086
 51
134.811643172
  0
LINE
  5
AE8
330
A02
100
AcDbEntity
  8
Pad028
100
AcDbLine
 10
-65.715531690
 20
-42.381064328
 30
1.000000000
 11
-43.372749328
 21
-64.723824786
 31
1.000000000
  0
ARC
  5
AE9
330
A02
100
AcDbEntity
  8
Pad028
100
AcDbCircle
 10
-47.261868921
 20
-68.612948191
 30
1.000000000
 40
5.500048370
100
AcDbArc
 50
3.064580543
 51
45.000028086
  0
ARC
  5
AEA
330
A02
100
AcDbEntity
  8
Pad028
100
AcDbCircle
 10
-38.773976383
 20
-68.158522675
 30
1.000000000
 40
3.000000000
100
AcDbArc
 50
-176.935417661
 51
-55.550520411
  0
ARC
  5
AEB
330
A02
100
AcDbEntity
  8
Pad028
100
AcDbCircle
 10
-20.672237323
 20
-94.546532131
 30
1.000000000
 40
29.000000000
100
AcDbArc
 50
90.000000000
 51
124.449479589
  0
LINE
  5
AEC
330
A02
100
AcDbEntity
  8
Pad028
100
AcDbLine
 10
-20.672237323
 20
-65.546532131
 30
1.000000000
 11
20.672237323
 21
-65.546532131
 31
1.000000000
  0
ARC
  5
AED
330
A02
100
AcDbEntity
  8
Pad028
100
AcDbCircle
 10
20.672237323
 20
-94.546532131
 30
1.000000000
 40
29.000000000
100
AcDbArc
 50
55.550534099
 51
90.000000000
  0
ARC
  5
AEE
330
A02
100
AcDbEntity
  8
Pad028
100
AcDbCircle
 10
38.773970079
 20
-68.158518351
 30
1.000000000
 40
3.000000000
100
AcDbArc
 50
-124.449465901
 51
-3.064806819
  0
ARC
  5
AEF
330
A02
100
AcDbEntity
  8
Pad028
100
AcDbCircle
 10
47.261857444
 20
-68.612977207
 30
1.000000000
 40
5.500044987
100
AcDbArc
 50
135.000009362
 51
176.935193181
  0
LINE
  5
AF0
330
A02
100
AcDbEntity
  8
Pad028
100
AcDbLine
 10
43.372737702
 20
-64.723858735
 30
1.000000000
 11
65.715567003
 21
-42.381022132
 31
1.000000000
  0
ARC
  5
AF1
330
A02
100
AcDbEntity
  8
Pad028
100
AcDbCircle
 10
69.604686746
 20
-46.270140604
 30
1.000000000
 40
5.500044987
100
AcDbArc
 50
45.188386164
 51
135.000009362
  0
ARC
  5
AF2
330
A02
100
AcDbEntity
  8
Pad028
100
AcDbCircle
 10
75.595331666
 20
-40.239971599
 30
1.000000000
 40
3.000000000
100
AcDbArc
 50
-134.811613836
 51
-42.590294145
  0
ARC
  5
AF3
330
A02
100
AcDbEntity
  8
Pad028
100
AcDbCircle
 10
31.819810353
 20
0.000000000
 30
1.000000000
 40
62.460504376
100
AcDbArc
 50
-42.590294145
 51
42.586466601
  0
ARC
  5
AF4
330
A02
100
AcDbEntity
  8
Pad028
100
AcDbCircle
 10
75.595315609
 20
40.239993205
 30
1.000000000
 40
3.000000000
100
AcDbArc
 50
42.510092680
 51
134.811622958
  0
ARC
  5
AF5
330
A02
100
AcDbEntity
  8
Pad028
100
AcDbCircle
 10
69.604689912
 20
46.270140939
 30
1.000000000
 40
5.500016349
100
AcDbArc
 50
-134.999991762
 51
-45.188377042
  0
LINE
  5
AF6
330
A02
100
AcDbEntity
  8
Pad028
100
AcDbLine
 10
42.381022528
 20
65.715519995
 30
1.000000000
 11
65.715591614
 21
42.381041522
 31
1.000000000
  0
ARC
  5
AF7
330
A02
100
AcDbEntity
  8
Pad028
100
AcDbCircle
 10
46.270162549
 20
69.604661134
 30
1.000000000
 40
5.500075354
100
AcDbArc
 50
135.188394461
 51
-134.999991762
  0
ARC
  5
AF8
330
A02
100
AcDbEntity
  8
Pad028
100
AcDbCircle
 10
40.239971134
 20
75.595326583
 30
1.000000000
 40
3.000000000
100
AcDbArc
 50
-44.811605539
 51
47.381032577
  0
ARC
  5
AF9
330
A02
100
AcDbEntity
  8
Pad028
100
AcDbCircle
 10
0.000000000
 20
31.819809729
 30
1.000000000
 40
62.460500420
100
AcDbArc
 50
47.408326213
 51
132.590293428
  0
ARC
  5
AFA
330
A02
100
AcDbEntity
  8
Pad028
100
AcDbCircle
 10
-40.239968375
 20
75.595328633
 30
1.000000000
 40
3.000000000
100
AcDbArc
 50
132.590293428
 51
-135.188400467
  0
ARC
  5
AFB
330
A02
100
AcDbEntity
  8
Pad028
100
AcDbCircle
 10
-46.270118559
 20
69.604705400
 30
1.000000000
 40
5.500016351
100
AcDbArc
 50
-45.000010486
 51
44.811599533
  0
LINE
  5
AFC
330
A02
100
AcDbEntity
  8
Pad028
100
AcDbLine
 10
-65.715507363
 20
42.381045221
 30
1.000000000
 11
-42.381020412
 21
65.715605830
 31
1.000000000
  0
ARC
  5
AFD
330
A02
100
AcDbEntity
  8
Pad028
100
AcDbCircle
 10
-69.604648401
 20
46.270187683
 30
1.000000000
 40
5.500077009
100
AcDbArc
 50
-134.811631340
 51
-45.000010486
  0
ARC
  5
AFE
330
A02
100
AcDbEntity
  8
Pad028
100
AcDbCircle
 10
31.819810353
 20
0.000000000
 30
1.000000000
 40
40.935875908
100
AcDbArc
 50
-44.999990638
 51
45.000009362
  0
LINE
  5
AFF
330
A02
100
AcDbEntity
  8
Pad028
100
AcDbLine
 10
28.946025832
 20
60.765845020
 30
1.000000000
 11
60.765841071
 21
28.946040178
 31
1.000000000
  0
ARC
  5
B00
330
A02
100
AcDbEntity
  8
Pad028
100
AcDbCircle
 10
0.000000000
 20
31.819809729
 30
1.000000000
 40
40.935868997
100
AcDbArc
 50
45.000009362
 51
134.999980714
  0
LINE
  5
B01
330
A02
100
AcDbEntity
  8
Pad028
100
AcDbLine
 10
-60.765836058
 20
28.946056215
 30
1.000000000
 11
-28.946020818
 21
60.765850033
 31
1.000000000
  0
ARC
  5
B02
330
A02
100
AcDbEntity
  8
Pad028
100
AcDbCircle
 10
-31.819799330
 20
0.000000000
 30
1.000000000
 40
40.935891497
100
AcDbArc
 50
134.999980714
 51
-134.999971914
  0
LINE
  5
B03
330
A02
100
AcDbEntity
  8
Pad028
100
AcDbLine
 10
-60.765831612
 20
-28.946060660
 30
1.000000000
 11
-43.922700862
 21
-45.789174897
 31
1.000000000
  0
ARC
  5
B04
330
A02
100
AcDbEntity
  8
Pad028
100
AcDbCircle
 10
-39.680062255
 20
-41.546532131
 30
1.000000000
 40
6.000000000
100
AcDbArc
 50
-134.999971914
 51
-90.000000000
  0
LINE
  5
B05
330
A02
100
AcDbEntity
  8
Pad028
100
AcDbLine
 10
-39.680062255
 20
-47.546532131
 30
1.000000000
 11
39.680073249
 21
-47.546532131
 31
1.000000000
  0
ARC
  5
B06
330
A02
100
AcDbEntity
  8
Pad028
100
AcDbCircle
 10
39.680073249
 20
-41.546532131
 30
1.000000000
 40
6.000000000
100
AcDbArc
 50
-90.000000000
 51
-44.999990638
  0
LINE
  5
B07
330
A02
100
AcDbEntity
  8
Pad028
100
AcDbLine
 10
60.765850531
 20
-28.946030719
 30
1.000000000
 11
43.922714629
 21
-45.789172124
 31
1.000000000
  0
CIRCLE
  5
B08
330
A02
100
AcDbEntity
  8
Pad028
100
AcDbCircle
 10
38.773970079
 20
-68.158518351
 30
1.000000000
 40
1.800000000
  0
CIRCLE
  5
B09
330
A02
100
AcDbEntity
  8
Pad028
100
AcDbCircle
 10
75.595331666
 20
-40.239971599
 30
1.000000000
 40
1.800000000
  0
CIRCLE
  5
B0A
330
A02
100
AcDbEntity
  8
Pad028
100
AcDbCircle
 10
75.595315609
 20
40.239993205
 30
1.000000000
 40
1.800000000
  0
CIRCLE
  5
B0B
330
A02
100
AcDbEntity
  8
Pad028
100
AcDbCircle
 10
40.239971134
 20
75.595326583
 30
1.000000000
 40
1.800000000
  0
CIRCLE
  5
B0C
330
A02
100
AcDbEntity
  8
Pad028
100
AcDbCircle
 10
-40.239968375
 20
75.595328633
 30
1.000000000
 40
1.800000000
  0
CIRCLE
  5
B0D
330
A02
100
AcDbEntity
  8
Pad028
100
AcDbCircle
 10
-75.595317732
 20
40.239997792
 30
1.000000000
 40
1.800000000
  0
CIRCLE
  5
B0E
330
A02
100
AcDbEntity
  8
Pad028
100
AcDbCircle
 10
-75.595301675
 20
-40.240019397
 30
1.000000000
 40
1.800000000
  0
CIRCLE
  5
B0F
330
A02
100
AcDbEntity
  8
Pad028
100
AcDbCircle
 10
-38.773976383
 20
-68.158522675
 30
1.000000000
 40
1.800000000
  0
ENDSEC
  0
SECTION
  2
OBJECTS
  0
DICTIONARY
  5
F000
330
0
100
AcDbDictionary
  3
ACAD_GROUP
350
F001
  0
DICTIONARY
  5
F001
330
F000
100
AcDbDictionary
  0
ENDSEC
  0
EOF